<svg width="680" height="400" viewBox="0 0 680 400" role="img" xmlns="http://www.w3.org/2000/svg">
<title>Beat the House logo</title>
<desc>A neon arcade marquee logo in the game's own style: a cyan cabinet frame on near-black with three reel windows showing the game's actual slot symbols — a lucky seven tile, a BAR tile, and a gold token coin — under the pixel wordmark BEAT THE HOUSE.</desc>
<defs>
<style>@import url('https://fonts.googleapis.com/css2?family=Press+Start+2P&amp;display=swap');</style>
<pattern id="scan" width="4" height="4" patternUnits="userSpaceOnUse">
<rect width="4" height="2" fill="#0d1426" opacity="0.55"/>
</pattern>
</defs>

<rect x="0" y="0" width="680" height="400" fill="#05060a"/>

<rect x="0" y="40" width="680" height="4" fill="#ff2d78"/>
<rect x="0" y="46" width="680" height="1" fill="#ff6eb4" opacity="0.6"/>
<rect x="0" y="354" width="680" height="4" fill="#ff2d78"/>
<rect x="0" y="360" width="680" height="1" fill="#ff6eb4" opacity="0.6"/>

<rect x="60" y="86" width="560" height="214" fill="#0a0a16" stroke="#00f5ff" stroke-width="3"/>
<rect x="60" y="86" width="560" height="214" fill="url(#scan)"/>
<rect x="66" y="92" width="548" height="202" fill="none" stroke="#0096a6" stroke-width="1"/>

<g fill="#ffe45c">
<rect x="92" y="83" width="5" height="6"/><rect x="132" y="83" width="5" height="6"/>
<rect x="172" y="83" width="5" height="6"/><rect x="212" y="83" width="5" height="6"/>
<rect x="252" y="83" width="5" height="6"/><rect x="292" y="83" width="5" height="6"/>
<rect x="332" y="83" width="5" height="6"/><rect x="372" y="83" width="5" height="6"/>
<rect x="412" y="83" width="5" height="6"/><rect x="452" y="83" width="5" height="6"/>
<rect x="492" y="83" width="5" height="6"/><rect x="532" y="83" width="5" height="6"/>
<rect x="572" y="83" width="5" height="6"/>
</g>

<rect x="190" y="100" width="84" height="62" fill="#05060a" stroke="#ffffff" stroke-width="2"/>
<rect x="195" y="105" width="74" height="52" fill="#ff2d78" opacity="0.16"/>
<rect x="195" y="105" width="74" height="52" fill="none" stroke="#ff6eb4" stroke-width="1" opacity="0.5"/>
<rect x="199" y="109" width="66" height="44" fill="#ff2d78"/>
<text x="232" y="140" text-anchor="middle" font-family="'Press Start 2P', monospace" font-size="24" fill="#f8fafc">7</text>

<rect x="298" y="100" width="84" height="62" fill="#05060a" stroke="#ffffff" stroke-width="2"/>
<rect x="303" y="105" width="74" height="52" fill="#00f5ff" opacity="0.14"/>
<rect x="303" y="105" width="74" height="52" fill="none" stroke="#00f5ff" stroke-width="1" opacity="0.5"/>
<rect x="304" y="106" width="72" height="50" fill="#00f5ff"/>
<rect x="307" y="109" width="66" height="44" fill="none" stroke="#0096a6" stroke-width="2"/>
<text x="340" y="137" text-anchor="middle" font-family="'Press Start 2P', monospace" font-size="13" fill="#04323a">BAR</text>

<rect x="406" y="100" width="84" height="62" fill="#05060a" stroke="#ffffff" stroke-width="2"/>
<rect x="411" y="105" width="74" height="52" fill="#ffe45c" opacity="0.15"/>
<rect x="411" y="105" width="74" height="52" fill="none" stroke="#ffe45c" stroke-width="1" opacity="0.5"/>
<circle cx="448" cy="131" r="18" fill="#ffe45c"/>
<circle cx="442" cy="125" r="6" fill="#ffffff" opacity="0.65"/>
<text x="448" y="139" text-anchor="middle" font-family="'Press Start 2P', monospace" font-size="18" fill="#4a3a00">G</text>

<text x="340" y="212" text-anchor="middle" font-family="'Press Start 2P', monospace" font-size="32" letter-spacing="5" fill="#d8e8ea">BEAT THE</text>
<text x="340" y="262" text-anchor="middle" font-family="'Press Start 2P', monospace" font-size="36" letter-spacing="7" fill="#ff2d78">HOUSE</text>

<rect x="248" y="276" width="184" height="11" fill="#ffb32d"/>

<text x="340" y="338" text-anchor="middle" font-family="'Courier New', Consolas, monospace" font-size="15" letter-spacing="6" fill="#00f5ff">A CASINO ROGUELIKE</text>
</svg>
